<mxfile host="app.diagrams.net" modified="2024-04-05T17:28:03.652Z" agent="Mozilla/5.0 (Macintosh; Intel Mac OS X 10_15_7) AppleWebKit/537.36 (KHTML, like Gecko) Chrome/123.0.0.0 Safari/537.36" etag="_K_9IGPJ-PNK04vgNTJT" version="24.2.2" type="github">
  <diagram name="ページ1" id="11dxs5L_7b-AESgaYa28">
    <mxGraphModel dx="4176" dy="2326" grid="1" gridSize="10" guides="1" tooltips="1" connect="1" arrows="1" fold="1" page="1" pageScale="1" pageWidth="827" pageHeight="1169" math="0" shadow="0">
      <root>
        <mxCell id="0" />
        <mxCell id="1" parent="0" />
        <mxCell id="Li3Ecwjz1dVQ7t1ecy7Y-1" value="&lt;font style=&quot;font-size: 72px;&quot;&gt;Nautilus Roadmap&lt;/font&gt;" style="text;html=1;align=left;verticalAlign=middle;whiteSpace=wrap;rounded=0;" vertex="1" parent="1">
          <mxGeometry x="-760" y="90" width="1070" height="30" as="geometry" />
        </mxCell>
        <mxCell id="Li3Ecwjz1dVQ7t1ecy7Y-2" value="" style="endArrow=classic;html=1;rounded=0;strokeWidth=3;" edge="1" parent="1">
          <mxGeometry width="50" height="50" relative="1" as="geometry">
            <mxPoint x="-760" y="200" as="sourcePoint" />
            <mxPoint x="540" y="200" as="targetPoint" />
          </mxGeometry>
        </mxCell>
      </root>
    </mxGraphModel>
  </diagram>
</mxfile>
